<svg xmlns="http://www.w3.org/2000/svg" viewBox="0 0 1200 800" role="img" aria-labelledby="title desc">
  <title id="title">CoastMate coastal resilience network</title><desc id="desc">A coastal technology network connecting communities and trade.</desc>
  <defs><linearGradient id="sky" x1="0" y1="0" x2="0" y2="1"><stop stop-color="#162d4b"/><stop offset="1" stop-color="#2f8e9b"/></linearGradient></defs>
  <rect width="1200" height="800" fill="url(#sky)"/><path d="M0 505c150-70 260 65 410-5s260 60 420-5 250 45 370-5v310H0Z" fill="#0d536b"/><path d="M0 585c180-75 300 65 465-10s255 60 390-5 225 50 345-5" fill="none" stroke="#b9f3dc" stroke-width="7" opacity=".7"/><path d="M190 470v-150M190 320l65 80M190 355l-65 65M1010 470V270M1010 270l-65 80M1010 315l65 75" stroke="#f5d88d" stroke-width="9"/><circle cx="190" cy="470" r="34" fill="#f5d88d"/><circle cx="1010" cy="470" r="34" fill="#f5d88d"/><path d="M225 470h750" stroke="#f5d88d" stroke-width="5" stroke-dasharray="16 14"/><text x="85" y="100" fill="white" font-family="sans-serif" font-size="48" font-weight="700">COASTMATE</text><text x="88" y="142" fill="#c9f3dc" font-family="sans-serif" font-size="23">SMART COASTAL RESILIENCE &amp; TRADE NETWORK</text><text x="455" y="690" fill="#f5d88d" font-family="monospace" font-size="27">AI + IoT + MSME</text>
</svg>